<?xml version="1.0" encoding="UTF-8"?>
<svg id="Layer_1" data-name="Layer 1" xmlns="http://www.w3.org/2000/svg" viewBox="0 0 44 44">
  <path d="M32.29,21.77h-3.21v-5.15h-4.77v-3.22h4.77v-5.16h3.21v5.16h4.79v3.22h-4.79v5.15Z" fill="#4a63c9"/>
  <path d="M29.82,35.47h-1.61v-2.57h-2.39v-1.61h2.39v-2.58h1.61v2.58h2.39v1.61h-2.39v2.57Z" fill="#f04848"/>
  <path d="M37.9,31.29h-2.25v-3.6h-3.34v-2.25h3.34v-3.61h2.25v3.61h3.35v2.25h-3.35v3.6Z" fill="#35af57"/>
  <path d="M9.38,19.74h2.85c2.68,0,4.41-1.49,4.41-3.63s-1.43-3.51-3.99-3.51-4.27,1.38-4.43,3.65H3.32c.27-4.79,3.99-7.86,9.34-7.86s9.05,2.74,9.05,6.94c0,3.34-2.32,5.5-5.33,6.14v.11c3.79.36,6.27,2.67,6.27,6.26,0,4.76-4.02,7.92-9.96,7.92s-9.71-3.2-9.94-8.01h5.1c.18,2.14,2.02,3.6,4.84,3.6s4.52-1.53,4.52-3.74c.02-2.54-1.81-3.96-4.91-3.96h-2.92v-3.9Z" fill="#fff"/>
</svg>